<svg xmlns="http://www.w3.org/2000/svg" height="1024" preserveAspectRatio="none" style="display: block;" version="1.1" viewBox="0 0 2048 2048" width="1024">
<path d="M 958.337 472.342 C 956.285 467.249 951.639 457.006 948.196 453.01 C 927.219 428.664 884.687 413.243 861.42 391.849 C 837.887 368.868 824.399 334.758 805.422 308.471 C 794.647 293.545 708.413 204.104 725.582 189.719 C 753.507 190.476 818.86 305.49 836.672 332.587 C 846.83 348.041 857.581 371.024 872.243 383.113 C 904.826 409.981 957.683 424.102 972.07 467.942 L 975.345 470.471 C 981.155 474.955 982.651 476.35 984.368 483.576 C 1006.32 457.338 1042.94 458.96 1065.65 483.598 C 1069.04 475.747 1070.05 474.247 1077.33 469.723 C 1092.59 422.662 1152.23 409.144 1184.38 377.297 C 1192.53 369.22 1203.6 347.71 1210.41 337.116 C 1221.62 319.669 1306.92 176.952 1326.94 191.459 C 1330.65 207.017 1288.32 259.763 1276.41 272.767 C 1266.46 283.63 1253.24 295.687 1244.71 308.1 C 1227.13 333.714 1213.5 363.235 1193.16 386.823 C 1170.87 410.118 1123.36 428.569 1102.05 453.632 C 1097.27 459.251 1094.99 466.607 1092.78 473.512 C 1097.59 487.32 1098.52 490.149 1089.57 502.218 C 1136.41 532.834 1176.1 578.813 1177.81 637.141 C 1180.07 714.185 1108.64 713.141 1053.13 712.945 C 1050.67 712.82 1048.21 712.648 1045.76 712.428 C 1045.21 712.927 1044.67 713.429 1044.13 713.936 C 1047.29 714.558 1049.96 715.144 1053 716.201 C 1088.81 727.314 1115.75 740.354 1133.5 775.082 C 1158.8 824.597 1146.2 887.418 1123.06 935.273 C 1117.7 946.357 1105.2 957.029 1104.57 969.035 L 1105.38 970.447 C 1117.05 967.778 1140.49 955.723 1154.12 951.428 C 1200.52 936.802 1288.73 908.916 1337.54 918.485 C 1358.85 906.099 1434.75 807.809 1455.05 784.824 C 1463.4 775.362 1474.75 759.208 1485.28 750.796 C 1486.95 749.467 1488.96 749.199 1490.54 749.033 C 1495.76 748.483 1500.25 736.984 1505.46 730.708 C 1513.94 727.343 1526.77 721.242 1534.45 716.512 C 1561.88 699.625 1601.82 687.01 1623.76 663.795 C 1622.57 668.733 1621.79 672.045 1621.14 677.165 C 1624.09 679.067 1627.51 680.983 1629.77 683.569 L 1629.04 684.447 C 1628.67 684.468 1628.29 684.484 1627.92 684.511 C 1625.85 684.66 1623.68 684.817 1621.73 685.553 C 1608.91 690.388 1519.76 739.693 1513.21 747.382 C 1509.74 751.467 1509.46 754.836 1509.73 760.017 C 1509.81 761.611 1510.07 763.68 1509.55 765.222 C 1507.45 771.432 1485.4 794.14 1479.91 800.164 C 1453.61 829.03 1425.57 856.81 1397.74 884.209 C 1377.3 904.331 1356.72 928.21 1331.6 942.482 C 1316.67 950.967 1299.01 955.725 1282.45 960.099 C 1247.8 969.005 1212.59 975.563 1177.06 979.73 C 1151.53 982.677 1126.19 984.187 1100.83 987.304 L 1089.51 1013 C 1098.53 1022.83 1104.61 1043.57 1108.04 1056.37 C 1167.71 1056.06 1304.06 1058.32 1348.37 1101.79 C 1356.18 1109.49 1363.43 1117.74 1370.05 1126.48 C 1417.7 1190.42 1458.48 1258.92 1501.91 1325.67 C 1509.22 1336.91 1512.6 1338.65 1509.55 1351.87 C 1512.82 1367.5 1578.48 1399.02 1593.98 1410.57 C 1609.09 1417.16 1616.87 1426.94 1632.66 1429.02 L 1633.2 1430.05 L 1630.41 1431.67 C 1627.8 1433.26 1623.51 1435.31 1622.51 1437.85 C 1623.03 1441.69 1623.78 1443.38 1622.76 1446.85 C 1619.67 1445.7 1617.17 1440.16 1613.41 1437.83 C 1602.87 1431.29 1591.91 1425.65 1581.24 1419.34 L 1536.52 1393.42 C 1526.48 1387.58 1516.2 1380.78 1505.7 1376.06 L 1503.88 1375.23 C 1500.73 1369.62 1497.49 1363.6 1494.22 1358.11 C 1491.12 1357.31 1487.47 1356.46 1484.44 1355.53 C 1475.27 1345.14 1457.13 1310.72 1449.52 1297.02 L 1395.81 1201.91 C 1383.22 1179.78 1354.85 1130.89 1338.04 1112.07 C 1305.67 1121.28 1205.5 1101.23 1171.43 1090.89 C 1152.02 1085 1127.73 1075.5 1108.46 1069.72 C 1107.23 1094.25 1103.64 1102.21 1100.07 1124.63 C 1110.1 1126.34 1135.42 1138.41 1145.67 1143.26 C 1207.67 1172.6 1273.7 1207.65 1314.92 1264.23 C 1320.81 1272.3 1326.34 1281.92 1329.15 1291.46 C 1340.6 1330.38 1346.25 1373.32 1352.28 1413.42 C 1357.83 1450.32 1365.15 1487.99 1370.12 1524.67 C 1367.82 1529.99 1368.62 1554.14 1371.25 1556.47 C 1371.85 1556.51 1372.33 1555.84 1372.76 1555.5 C 1373.19 1556.17 1372.09 1557.78 1371.96 1558.3 C 1371.38 1560.83 1372.91 1562.92 1372.53 1565.99 C 1372.27 1568.1 1373.17 1572.86 1373.73 1575 C 1374.98 1579.78 1373.76 1580.92 1378.06 1581.31 C 1379.5 1589.92 1385.13 1615.17 1380.34 1621.8 C 1379.75 1622.62 1376.97 1625.46 1376.13 1626.3 C 1373.64 1633.36 1379.98 1648.06 1383.3 1654.63 C 1395.96 1679.69 1408.98 1704.6 1421.52 1729.72 C 1426.14 1739.04 1434.09 1753.66 1437.6 1762.95 C 1440.75 1765.05 1446.1 1768.04 1447.86 1771.05 L 1446.8 1772.14 L 1441.86 1772.16 C 1440.63 1766.23 1434.49 1771.14 1432.95 1770.55 C 1428.53 1768.84 1435.05 1766.7 1435.21 1766.54 C 1435.23 1765.93 1435.26 1766.32 1434.87 1765.44 C 1433.1 1765.03 1432.34 1765.79 1430.63 1766.72 C 1424.12 1758.98 1415.03 1736.6 1407.48 1730.85 C 1391.74 1705.97 1379.76 1673.32 1363.51 1648.15 C 1359.7 1642.24 1359.15 1633.52 1357.75 1626.41 C 1353.09 1623.79 1349.11 1622.2 1348.22 1616.41 C 1344.32 1590.87 1342.94 1564.75 1340.5 1539.03 L 1327.31 1396.54 C 1324.33 1363.4 1321.15 1321.01 1315.31 1288.77 C 1256.82 1285.88 1139.27 1183.25 1094.86 1139.53 C 1080.74 1163.66 1070.89 1184.43 1042.09 1194.92 C 1052.5 1197.81 1064.13 1200.14 1074.21 1203.11 C 1105.44 1212.32 1136.78 1233.26 1157.65 1258.11 C 1161.56 1262.78 1166.5 1267.8 1169.41 1273.1 C 1168.76 1276.86 1168.29 1276.33 1170.99 1280.22 C 1193.36 1312.37 1204.34 1348.54 1211.5 1386.66 C 1212.43 1391.6 1215.49 1400.43 1215.8 1403.17 C 1217.09 1414.32 1215.75 1429.62 1218.29 1440.63 C 1220.85 1451.71 1216.08 1471.58 1219.84 1481.52 C 1220.31 1488.21 1217.2 1502.48 1215.64 1509.3 C 1205.05 1554.72 1186.94 1598.05 1162.05 1637.49 C 1023.17 1853.1 868.135 1669.99 833.224 1500.99 C 811.531 1395.97 850.468 1271.02 946.87 1215.52 C 966.335 1204.31 984.818 1199.37 1006.61 1195.07 C 977.355 1183.41 968.903 1164.63 954.415 1138.57 C 903.93 1184.86 803.039 1279.81 735.407 1290.03 C 721.867 1397.93 715.005 1507.31 700.568 1615.16 C 699.709 1621.58 698.166 1622.69 692.978 1626.16 C 692.499 1628.46 691.967 1630.75 691.514 1633.06 C 688.499 1648.41 639.575 1739.13 628.769 1758.3 C 626.735 1761.91 624.637 1765.54 623.255 1769.46 C 622.158 1772.57 621.693 1779.18 619.377 1781.09 C 616.377 1778.42 616.488 1776.02 614.89 1773.91 C 612.843 1771.2 607.265 1774.37 603.452 1771.69 C 604.713 1766.47 611.901 1765.64 614.452 1759.41 C 631.364 1718.15 665.614 1669.51 676.018 1627.22 C 673.656 1625.08 671.091 1622.35 668.817 1620.06 C 668.462 1608.98 671.542 1593.7 673.312 1582.29 C 675.537 1567.64 677.684 1552.98 679.756 1538.31 C 686.207 1493.78 692.977 1449.29 700.066 1404.85 C 704.492 1376.12 713.484 1300.08 726.958 1276.47 C 760.899 1216.99 839.538 1173.15 899.947 1144.98 C 914.813 1138.04 934.3 1129.1 950.089 1124.08 C 946.372 1102.87 944.242 1092.43 942.744 1070.48 C 882.812 1091.47 816.161 1108.43 752.787 1113.29 C 740.529 1114.23 723.652 1115.52 712.064 1112.04 C 699.921 1124.68 671.308 1174.28 661.335 1191.27 C 632.457 1240.48 604.923 1290.81 575.394 1339.6 C 568.816 1350.47 566.821 1353.56 556.059 1356.48 C 554.742 1356.84 546.96 1372.13 545.01 1375.51 C 538.876 1378.18 532.535 1381.41 526.886 1385.03 C 497.523 1403.87 465.854 1419.21 436.824 1438.39 C 433.46 1440.61 429.273 1446.53 426.747 1449.89 C 427.648 1445.35 428.841 1440.84 429.965 1436.35 C 423.958 1432.84 420.933 1431.54 414.475 1428.89 C 417.306 1428.66 420.154 1428.43 422.968 1428.04 C 437.022 1426.09 517.59 1374.21 531.057 1363.44 C 535.366 1359.99 538.496 1355.8 541.786 1351.43 C 540.359 1349.29 538.569 1346.36 538.661 1343.77 C 539.017 1333.72 631.466 1197.26 644.121 1179.04 C 658.371 1158.53 672.9 1138.02 688.244 1118.31 C 695.289 1109.26 702.86 1100.46 711.743 1093.15 C 718.465 1087.62 727.456 1084.32 735.451 1081.12 C 788.107 1060.03 848.317 1057.7 904.345 1056.62 C 917.048 1056.38 930.622 1055.28 943.236 1056.59 C 947.821 1036.49 950.302 1030.63 960.682 1012.87 C 954.04 1003.7 952.279 998.727 948.016 988.335 C 911.601 981.299 873.63 979.547 836.831 973.437 C 797.682 966.937 753.398 959.888 717.749 941.564 C 685.673 925.077 571.814 803.759 543.92 771.278 C 540.743 767.578 539.662 765.095 540.015 760.176 C 540.086 759.182 540.194 758.19 540.229 757.194 C 540.352 753.761 539.215 751.382 536.815 749.021 C 527.66 740.014 443.832 692.165 430.094 686.38 C 426.227 684.751 420.401 685.204 416.217 685.107 C 420.722 681.993 425.193 679.406 429.894 676.632 C 429.26 672.961 428.212 669.101 427.324 665.459 C 432.401 669.047 436.941 674.08 442.306 677.106 C 475.638 695.911 509.024 715.564 543.629 731.804 C 544.508 732.216 553.715 745.442 555.571 747.675 L 564.411 749.251 C 576.486 760.749 591.946 780.061 602.898 793.164 L 669.904 873.972 C 679.466 885.297 701.043 910.91 712.85 919.105 C 736.64 912.407 769.902 918.955 794.361 922.859 C 837.894 929.806 879.226 946.617 920.368 961.763 C 926.061 963.859 938.33 970.536 943.626 971.225 C 943.453 963.757 940.92 960.596 937.031 954.428 C 891.719 882.58 883.406 757.613 977.972 721.215 C 987.746 717.453 997.61 715.6 1007.63 712.625 C 977.63 713.633 938.03 713.01 909.691 703.142 C 895.779 698.297 883.214 686.432 877.726 672.649 C 854.103 613.313 906.669 525.108 961.48 502.306 L 955.374 492.099 C 955.68 483.383 956.174 480.456 958.337 472.342 z" fill="rgb(7,6,7)" transform="translate(0,0)"></path>
<path d="M 1044.13 713.936 C 1042.36 714.062 1032.15 714.7 1031.77 712.61 C 1033 711.291 1043.71 711.949 1045.76 712.428 C 1045.21 712.927 1044.67 713.429 1044.13 713.936 z" fill="rgb(56,57,63)" transform="translate(0,0)"></path>
<path d="M 1430.22 312.004 C 1434.08 316.026 1436.66 320.361 1439.68 325.013 C 1444.12 324.375 1447.53 323.716 1451.9 322.739 C 1449.57 325.147 1439.69 334.133 1438.89 335.745 C 1430.55 352.528 1365.37 444.443 1370.52 457.956 C 1370.43 462.323 1374.68 466.586 1372.03 467.505 C 1370.76 466.774 1369.38 469.012 1369.42 470.411 C 1369.51 473.483 1370.93 475.474 1372.16 478.222 C 1367.79 519.568 1351.17 569.813 1343.89 611.609 C 1335.8 639.136 1332.71 679.111 1320.83 704.813 C 1292.47 766.152 1209.91 829.536 1158.71 868.166 C 1158.4 853.062 1158.92 836.28 1159.08 821.052 C 1194.27 780.504 1257.26 718.131 1307.57 699.086 C 1309 692.867 1310.84 686.883 1311.8 680.496 C 1322.67 607.75 1334.29 535.126 1344.9 462.349 C 1345.66 457.151 1349.62 455.265 1353.79 452.807 C 1358.18 433.958 1366.22 424.681 1376.48 408.674 L 1411.65 353.851 C 1416.4 346.508 1423.41 336.524 1426.97 328.844 L 1427.81 327.016 C 1430.45 321.339 1430.08 318.302 1430.22 312.004 z" fill="rgb(7,6,7)" transform="translate(0,0)"></path>
<path d="M 611.198 323.909 C 613.649 320.469 615.589 317.049 619.051 314.781 C 620.942 316.424 619.576 321.999 620.968 324.387 C 634.752 348.366 651.829 370.957 666.276 394.616 C 678.268 414.256 692.367 429.775 696.72 452.825 C 700.535 455.2 706.206 457.931 706.861 462.755 C 711.814 499.241 718.049 536.161 722.265 572.688 C 717.995 587.414 722.782 593.073 724.605 606.503 C 725.856 615.717 722.76 617.502 729.852 626.499 C 734.151 652.621 735.724 673.54 741.576 700.628 C 778.342 711.118 839.805 769.289 867.317 797.655 C 873.767 804.306 883.076 816.099 889.872 823.736 C 889.8 838.668 890.868 853.303 890.691 868.235 C 877.309 858.098 858.652 846.292 846.306 836.472 C 808.84 806.674 747.243 750.612 730.124 706.24 C 718.902 677.155 707.089 617.308 700.397 584.618 L 686.813 517.9 C 683.243 500.664 678.635 480.213 676.44 462.903 C 677.863 460.017 679.716 456.774 681.261 453.897 C 679.654 449.466 677.127 440.287 674.915 436.549 C 664.723 420.122 654.767 402.419 643.935 386.464 C 629.125 364.651 618.762 339.015 597.722 322.828 C 602.641 322.989 606.342 323.365 611.198 323.909 z" fill="rgb(7,6,7)" transform="translate(0,0)"></path>
<path d="M 1169.41 1273.1 C 1182.02 1290.31 1192.38 1309.07 1200.22 1328.91 C 1216.07 1369 1228.02 1438.5 1219.84 1481.52 C 1216.08 1471.58 1220.85 1451.71 1218.29 1440.63 C 1215.75 1429.62 1217.09 1414.32 1215.8 1403.17 C 1215.49 1400.43 1212.43 1391.6 1211.5 1386.66 C 1204.34 1348.54 1193.36 1312.37 1170.99 1280.22 C 1168.29 1276.33 1168.76 1276.86 1169.41 1273.1 z" fill="rgb(7,6,7)" fill-opacity="0.968627" transform="translate(0,0)"></path>
<path d="M 1407.48 1730.85 C 1415.03 1736.6 1424.12 1758.98 1430.63 1766.72 C 1432.34 1765.79 1433.1 1765.03 1434.87 1765.44 C 1435.26 1766.32 1435.23 1765.93 1435.21 1766.54 C 1435.05 1766.7 1428.53 1768.84 1432.95 1770.55 C 1434.49 1771.14 1440.63 1766.23 1441.86 1772.16 C 1441 1772.25 1436.67 1772.41 1436.47 1772.48 C 1436.29 1772.7 1436.17 1773.22 1436.19 1773.46 C 1436.53 1776.82 1433.32 1780.78 1431.26 1783.78 C 1430.91 1781.93 1430.39 1779.82 1430.14 1777.98 C 1427.82 1760.84 1414.37 1746.67 1407.48 1730.85 z" fill="rgb(7,6,7)" fill-opacity="0.92549" transform="translate(0,0)"></path>
<path d="M 1370.12 1524.67 C 1371.81 1532.35 1371.68 1540.68 1373.09 1548.5 C 1375.06 1559.46 1375.94 1570.31 1378.06 1581.31 C 1373.76 1580.92 1374.98 1579.78 1373.73 1575 C 1373.17 1572.86 1372.27 1568.1 1372.53 1565.99 C 1372.91 1562.92 1371.38 1560.83 1371.96 1558.3 C 1372.09 1557.78 1373.19 1556.17 1372.76 1555.5 C 1372.33 1555.84 1371.85 1556.51 1371.25 1556.47 C 1368.62 1554.14 1367.82 1529.99 1370.12 1524.67 z" fill="rgb(7,6,7)" fill-opacity="0.972549" transform="translate(0,0)"></path>
<path d="M 722.265 572.688 C 725.548 590.023 726.376 609.154 729.852 626.499 C 722.76 617.502 725.856 615.717 724.605 606.503 C 722.782 593.073 717.995 587.414 722.265 572.688 z" fill="rgb(7,6,7)" fill-opacity="0.968627" transform="translate(0,0)"></path>
<path d="M 1370.52 457.956 C 1376.93 466.588 1374.18 467.619 1372.16 478.222 C 1370.93 475.474 1369.51 473.483 1369.42 470.411 C 1369.38 469.012 1370.76 466.774 1372.03 467.505 C 1374.68 466.586 1370.43 462.323 1370.52 457.956 z" fill="rgb(7,6,7)" fill-opacity="0.964706" transform="translate(0,0)"></path>
<path d="M 1045.76 712.428 C 1048.21 712.648 1050.67 712.82 1053.13 712.945 L 1053 716.201 C 1049.96 715.144 1047.29 714.558 1044.13 713.936 C 1044.67 713.429 1045.21 712.927 1045.76 712.428 z" fill="rgb(223,230,230)" fill-opacity="0.0117647" transform="translate(0,0)"></path>
<metadata><recraft-signature>{"signed_by": "recraft", "signature_b64": "i3F3hFHVHYocctm1tVVJEVHEi47jRnZ6RfRYqvSgiNMrxRE5Chy3IwyS/RMe2XSc0SiZfp2qceT/BlNF8B0yBw==", "signing_algo": "Ed25519", "generation_timestamp": 1783540414, "identifier": "453c6d16-7381-40aa-be57-80c4f79b10af"}</recraft-signature></metadata></svg>